<?xml version="1.0" encoding="utf-8"?>
<!-- Generator: Adobe Illustrator 16.0.0, SVG Export Plug-In . SVG Version: 6.00 Build 0)  -->
<svg version="1.2" baseProfile="tiny" id="Layer_1" xmlns="http://www.w3.org/2000/svg" xmlns:xlink="http://www.w3.org/1999/xlink"
	 x="0px" y="0px" width="178.992px" height="174.336px" viewBox="0 0 178.992 174.336" xml:space="preserve">
<g>
	<path d="M20.834,130.432c25.286-25.323,50.571-50.646,75.857-75.969c9.12-9.134-5.021-23.277-14.143-14.143
		C57.263,65.644,31.978,90.967,6.692,116.289C-2.428,125.423,11.713,139.565,20.834,130.432L20.834,130.432z"/>
</g>
<g>
	<path d="M172.529,116.231c-25.323-25.285-50.646-50.571-75.97-75.856c-9.134-9.12-23.277,5.021-14.143,14.143
		c25.323,25.285,50.646,50.57,75.97,75.856C167.52,139.494,181.663,125.353,172.529,116.231L172.529,116.231z"/>
</g>
<g>
	<path d="M68.024,95.675c15.979-0.029,31.958-0.058,47.936-0.087c12.896-0.023,12.898-20.023,0-20
		c-15.979,0.029-31.958,0.058-47.936,0.087C55.128,75.698,55.126,95.698,68.024,95.675L68.024,95.675z"/>
</g>
</svg>
