<?xml version="1.0" encoding="utf-8"?>
<!-- Generator: Adobe Illustrator 16.0.0, SVG Export Plug-In . SVG Version: 6.00 Build 0)  -->
<!DOCTYPE svg PUBLIC "-//W3C//DTD SVG 1.1//EN" "http://www.w3.org/Graphics/SVG/1.1/DTD/svg11.dtd">
<svg version="1.1" id="Layer_1" xmlns="http://www.w3.org/2000/svg" xmlns:xlink="http://www.w3.org/1999/xlink" x="0px" y="0px"
	 viewBox="0 0 178.992 174.336" enable-background="new 0 0 178.992 174.336"
	 xml:space="preserve">
<g>
	<g>
		<g>
			<g>
				<g>
					<path fill="#2080D2" d="M59.005,6.239c-0.122,0.158-0.129,0.545,0.194,0.528c0,0,0.085-0.153,0.17-0.306
						c0.09-0.152,0.18-0.304,0.18-0.304L59.005,6.239z"/>
					<path fill="#2080D2" d="M60.675,7.948c0.235-0.062,0.547-0.164,0.823-0.288c0.269-0.12,0.52-0.292,0.6-0.616
						c-0.771,0.25-0.741-0.002-1.492,0.472C60.28,7.492,60.157,7.152,60.29,6.94c-0.173,0.112-0.486-0.304-0.739,0.086
						c0.137,0.277,0.31,0.458,0.528,0.551c0.218,0.087,0.497,0.051,0.855,0.009C60.958,7.759,60.76,7.854,60.675,7.948z"/>
					<path fill="#2080D2" d="M44.655,21.193c0,0,0.054,0.118,0.056,0.115C44.709,21.26,44.69,21.22,44.655,21.193z"/>
					<path fill="#2080D2" d="M53.723,14.978c-0.121,0.006-0.175,0.069-0.186,0.128C53.65,15.07,53.745,15.038,53.723,14.978z"/>
					<path fill="#2080D2" d="M56.236,16.085c-0.052-0.028-0.094-0.051-0.141-0.076C56.141,16.082,56.191,16.126,56.236,16.085z"/>
					<path fill="#2080D2" d="M44.655,21.193c-0.007-0.003-0.108-0.292-0.095-0.3C44.336,21.059,44.549,21.098,44.655,21.193z"/>
					<path fill="#2080D2" d="M63.844,11.163c-0.009-0.142-0.039-0.256-0.115-0.358c0.023,0.11,0.015,0.217,0.015,0.33
						C63.779,11.142,63.809,11.15,63.844,11.163z"/>
					<path fill="#2080D2" d="M50.668,20.75l0.095-0.035c-0.002-0.078-0.007-0.179-0.023-0.284L50.668,20.75z"/>
					<path fill="#2080D2" d="M54.935,17.83c-0.109,0.06,0.215,0.521,0.333,0.741c-0.091-0.224-0.091-0.368-0.036-0.469
						C55.165,18.018,55.071,17.929,54.935,17.83z"/>
					<path fill="#2080D2" d="M61.208,12.024l-0.011-0.162C61.204,11.905,61.199,11.971,61.208,12.024z"/>
					<path fill="#2080D2" d="M47.218,20.906c-0.006-0.084-0.023-0.157-0.042-0.202C47.174,20.774,47.191,20.842,47.218,20.906z"/>
					<path fill="#2080D2" d="M64.072,46.974c-0.024-0.032-0.051-0.042-0.074-0.067C63.995,46.983,64.009,47.023,64.072,46.974z"/>
					<path fill="#2080D2" d="M55.998,47.01l0.09-0.028c0.015-0.106,0.03-0.21,0.036-0.313L55.998,47.01z"/>
					<path fill="#2080D2" d="M60.221,18.27c-0.005-0.008-0.006-0.01-0.01-0.017C60.084,18.257,60.143,18.276,60.221,18.27z"/>
					<path fill="#2080D2" d="M58.37,23.7c-0.271-0.643,0.965-0.306,0.488-1.1C58.833,22.818,57.932,23.2,58.37,23.7z"/>
					<path fill="#2080D2" d="M63.729,11.372c-0.015,0.113-0.031,0.226-0.06,0.34C63.718,11.561,63.736,11.454,63.729,11.372z"/>
					<path fill="#2080D2" d="M58.858,22.601l0.001-0.005l-0.054-0.078C58.827,22.552,58.839,22.571,58.858,22.601z"/>
					<path fill="#2080D2" d="M60.886,23.625c0.079,0.065,0.157,0.099,0.236,0.128C61.083,23.71,61.019,23.671,60.886,23.625z"/>
					<path fill="#2080D2" d="M62.751,18.821c0,0,0.058,0.17,0.051,0.172C62.806,18.91,62.777,18.861,62.751,18.821z"/>
					<path fill="#2080D2" d="M57.731,26.449c-0.123,0.008-0.189-0.048-0.3,0.085c0.025,0.02,0.045,0.031,0.071,0.043
						C57.522,26.484,57.575,26.42,57.731,26.449z"/>
					<path fill="#2080D2" d="M53.549,27.843c0.032,0.04,0.069,0.065,0.104,0.1c0.044-0.018,0.095-0.039,0.139-0.057L53.549,27.843z"
						/>
					<path fill="#2080D2" d="M52.648,36.993c0.241,0.067,0.403,0.194,0.53,0.335C52.912,37.004,54.006,36.465,52.648,36.993z"/>
					<path fill="#2080D2" d="M63.529,11.146c0.132,0.049,0.191,0.113,0.2,0.226c0.01-0.082,0.013-0.161,0.015-0.238
						C63.665,11.108,63.586,11.102,63.529,11.146z"/>
					<path fill="#2080D2" d="M59.408,30.558l-0.812,0.269C58.836,30.783,59.13,30.682,59.408,30.558z"/>
					<path fill="#2080D2" d="M45.019,35.518c0,0-0.024-0.077-0.049-0.153c-0.019-0.043-0.038-0.087-0.038-0.087
						C44.921,35.334,44.942,35.412,45.019,35.518z"/>
					<path fill="#2080D2" d="M56.237,31.799c-0.147-0.059-0.272-0.088-0.419-0.125c-0.147-0.032-0.288-0.053-0.359-0.075
						c-0.025,0.049-0.058,0.093-0.068,0.162c0.024-0.004,0.101,0.04,0.368,0.048C56.016,31.827,56.237,31.799,56.237,31.799z"/>
					<path fill="#2080D2" d="M53.183,37.332c-0.003-0.001-0.004-0.004-0.004-0.004S53.179,37.331,53.183,37.332z"/>
					<path fill="#2080D2" d="M59.579,36.094c-0.871-0.215-0.562,0.615-0.83,0.989c-1.022,0.017-0.362-0.62-0.65-1.054
						c-0.698,0.089-1.254,0.719-1.732,0.669c-0.03-0.123-0.125-0.172-0.005-0.319c-0.363,0.272-0.881,0.279-1.443,0.347
						c-0.552,0.063-1.195,0.233-1.554,0.74c-0.089-0.04-0.146-0.085-0.182-0.133c0.277,0.299,0.399,0.657,0.456,0.917
						c-0.403,0.137-0.486,0.705-0.873,0.379c0.244-0.127,0.174-0.314,0.231-0.503c-0.004-0.014-0.335,0.425-0.335,0.425
						c-0.391-0.151-0.282-0.313-0.078-0.472c0.206-0.174,0.459-0.281,0.365-0.525c-0.437,0.299-0.904,0.806-1.186,1.426
						l-0.007,0.013L51.752,39l-0.001,0.003l-0.051,0.074v0v0.001l-0.003,0.017l-0.006,0.034l-0.013,0.067l-0.03,0.13
						c-0.008,0.052-0.082,0.239-0.13,0.385c-0.109,0.299-0.164,0.562-0.226,0.852c-0.351,0.125-0.393-0.645-0.148-1.147
						c0.128-0.313,0.134-0.325,0.107-0.392c-0.016-0.024-0.047-0.039-0.104-0.039c-0.07,0.03-0.099-0.062-0.297,0.151
						c-0.014,0.026,0.112-0.18,0.153-0.188c0.031-0.025,0.066-0.054,0.105-0.085l0.059-0.047l0.03-0.025l0.015-0.012l0.008-0.006
						l0.004-0.003l0.076-0.108l0.004-0.003c0.165-0.15,0.336-0.29,0.465-0.381c0.127-0.074,0.212-0.124,0.212-0.124
						c-0.399-0.029-0.579-0.01-0.606-0.073c-0.029-0.06,0.083-0.166,0.192-0.245c0.211-0.157,0.49-0.378-0.404-0.397
						c-0.131,0.087-0.267,0.223-0.382,0.338l-0.167,0.179l-0.077,0.089l-0.019,0.022l-0.123,0.174l-0.012,0.016
						c-0.062,0.087-0.11,0.169-0.15,0.248c-0.268,0.488-0.435,1.025-0.466,1.529c-0.044,0.516,0.011,1.181,0.299,1.855
						c0.274,0.641,0.791,1.261,1.273,1.646c0.354,0.023,0.376-0.138,0.421-0.273c0.034-0.151,0.103-0.259,0.376-0.319
						c0.648,0.184,0.929,0.262,1.16,0.467c0.209,0.174,0.339,0.428,0.448,0.651c0.218,0.452,0.455,0.884,1.181,0.508
						c0.399-0.419,0.565-1.252,1.409-0.776l-0.322,0.762c1.191,0.087,0.653-1.083,1.856-0.625c-0.188,0.32-0.884,0.299-0.706,0.383
						c0.816,0.572,0.533-0.458,1.113-0.506l0.192,0.665c0.62-0.119,1.256-0.365,1.916-0.681c0.289-0.15,0.82-0.382,1.184-0.623
						c0.396-0.243,0.758-0.523,1.067-0.855c0.067,0.209-0.065,0.599,0.432,0.451l0.053-0.066c0.771-1.019,1.463-2.145,1.674-3.481
						c0.123-0.663,0.101-1.339,0.028-2.027c-0.144-0.742-0.277-1.298-0.466-1.793c0,0-0.227-0.099-0.454-0.199
						c-0.227-0.084-0.455-0.14-0.455-0.14c-0.092-0.138,0.027-0.412,0.23-0.328c-0.276-0.749-0.322,0.191-0.717,0.044
						c-0.276-0.296-0.086-0.621,0.223-0.546c-1.226-0.739-3.137-1.535-3.874-2.671l0.294-0.022
						c-0.742-0.714-1.494,0.518-2.061-0.332l0.197-0.025c-0.943-0.56-2.094-0.757-3.051-0.89c-0.985-0.144-1.889-0.264-2.706-0.685
						c-0.14,0.425-0.646,0.349-1.161,0.36c-0.51,0.002-1.029,0.109-0.961,0.689c-0.672-0.122-0.965-0.256-1.34-0.284
						c-0.371-0.02-0.816-0.107-1.991,0.546c-0.604,0.432-0.289,1.281-0.57,2.015l-0.556-0.266c0,0,0.004,0.369,0.048,0.703
						c0.023,0.338,0.157,0.628,0.157,0.628c0-0.026-0.826,0.461-0.825,0.488c0,0,0.003,0.053,0.008,0.133L44.8,34.68l0.001,0.018
						l0.001,0.009v0.251l0.001,0.002l0.007,0.019l0.033,0.08c0.044,0.109,0.089,0.219,0.089,0.219
						c0.014-0.089,0.08-0.187,0.163-0.259c0.021-0.018,0.043-0.035,0.066-0.05l0.035-0.02l0.018-0.009l0.004-0.002h0l0.001-0.206
						l0.001,0l0.002-0.001l0.01-0.005c0.052-0.028,0.102-0.037,0.145-0.023l0.003,0.027l0.001,0.203l0.003,0.008l0.012,0.033
						l0.021,0.067c0.012,0.045,0.021,0.091,0.026,0.138c0.012,0.098,0.003,0.162,0.014,0.365c0.004,0.346,0.009,0.692,0.014,1.008
						c0.009,0.657,0.171,1.327,0.061,1.439c-0.042-0.005,0.779,0.824,1.63,1.093c0.412,0.148,0.779,0.205,1.029,0.229
						c0.258,0.028,0.4,0.021,0.4,0.021c-0.1,0.234-0.532,0.222-0.991,0.209c0.869-0.021,0.818,0.087,0.844,0.279
						c-0.003,0.169,0.039,0.374,0.641,0.183c-0.124-0.164,0.137-0.35,0.169-0.473c0.219,0.221,0.606,0.359,0.966,0.42
						c0.193,0.032,0.247,0.037,0.515,0.04c0.225,0,0.446-0.013,0.648-0.039l-0.188,0.414c0.746,0.088,1.512,0.155,2.368-0.042
						c0.416-0.077,0.838-0.155,1.263-0.233c0.41-0.123,0.824-0.246,1.238-0.369c-0.653-0.024-0.678-0.78-0.257-0.972l0.375,0.571
						c0.175-0.467-0.549-0.1-0.096-0.74c0.587-0.091,0.645,0.583,0.354,0.888c0,0,0.166-0.108,0.332-0.216
						c0.15-0.127,0.301-0.254,0.301-0.254c0.112,0.164-0.011,0.33,0.034,0.58c0.12-0.491,1.499,0.057,1.604-0.771l0.126,0.149
						c0.699-0.409,1.19-0.756,1.61-1.097c0.392-0.352,0.747-0.686,1.24-1.061c-0.311-0.46,0.12-0.648,0.11-1.221
						c0.791-0.394,1.778-0.648,2.509-1.325c0.429-0.761-0.132-0.52-0.087-1.01c0.392,0.367,1.213-0.556,1.036,0.159
						c0.494-0.566,0.781-0.989,1.05-1.481c0.241-0.521,0.517-1.111,0.626-2.202c-0.268,0.163-0.43,0.359-0.554,0.181
						c0.035-0.354,0.439-0.727,0.66-0.635l0.032,0.112c-0.095-1.233,0.176-2.603-0.057-4.007c-0.214-1.362-0.834-2.575-1.817-2.804
						l0.106,0.03c0,0-0.409-0.232-0.822-0.396c-0.41-0.181-0.819-0.312-0.819-0.312c-0.551-0.529,0.601-0.028,0.339-0.624
						c-0.99-0.208-1.542-0.573-2.09-0.941c-0.536-0.371-1.065-0.716-1.827-0.716c-0.232-0.901-1.22-1.229-2.269-1.367
						c-1.06-0.149-2.154-0.115-2.935-0.623l0.075,0.358c-0.414,0.329-0.482-0.226-0.798-0.301c0.048,0.275,0.449,0.314,0.192,0.512
						c-0.44,0.054-0.883,0.107-1.329,0.162c-0.208,0.013-0.535,0.1-0.796,0.151c-0.302,0.059-0.479,0.13-0.717,0.192
						c-0.893,0.26-1.685,0.536-2.492,0.85c-1.597,0.646-3.217,1.34-4.693,2.775c-0.065,0.071-0.119,0.14-0.163,0.208
						c-0.055,0.082-0.113,0.18-0.15,0.264c-0.08,0.173-0.114,0.331-0.122,0.474C43.866,23.541,43.98,23.776,44.07,24
						c0.088,0.224,0.154,0.436,0.088,0.685c-0.032,0.126-0.101,0.26-0.214,0.419c-0.087,0.168-0.217,0.361-0.397,0.607
						c-0.008,0.019-0.465-0.748-0.457-0.766c-0.143,0.974-0.162,1.895-0.017,2.8c0.092,0.451,0.174,0.899,0.388,1.309l0.287,0.623
						c0.108,0.199,0.257,0.375,0.39,0.562c0.506,0.777,1.272,1.323,2.132,1.632c0.426,0.169,0.911,0.207,1.364,0.271
						c0.466,0.002,0.951,0.022,1.358-0.059c-0.207,0.138-0.219,0.354-0.584,0.307c0.091,0.07,0.209,0.132,0.334,0.168
						c0.135,0.04,0.273,0.064,0.363,0.076c0.215,0.027,0.448,0.007,0.651-0.051c0.418-0.105,0.743-0.336,0.736-0.533
						c0.363,0.027,0.102,0.351,0.34,0.538c0.529,0.255,1.174-0.71,1.474-0.266c0.053,0.072-0.118,0.169-0.203,0.215
						c0.294-0.255,1.461-0.125,1.089-0.632c0.877,0.141,1.533-0.491,2.266-0.309c0.04-0.174,0.325-0.269,0.515-0.363
						c0.217-0.089,0.342-0.099,0.521-0.137c0.329-0.063,0.599-0.161,0.514-0.593c0.255,0.879,1.673,0.142,1.975-0.484
						c-0.053,0.325,0.546,0.066,0.512,0.498c0.563-0.278,1.001-0.691,0.692-1.054c0.753,0.213,1.178-0.25,1.527-0.682
						c0.358-0.42,0.65-0.777,1.322-0.407c1.318-1.507,2.518-3.014,3.203-4.92c0.39,0.212,0.172,0.793-0.123,1.225
						c-0.27,0.476-0.565,0.868-0.179,1.135c0.476-0.858,0.644-1.706,0.762-2.509c0.069-0.392,0.068-0.829,0.138-1.237
						c0.048-0.419,0.05-0.88,0.134-1.386c0.034-0.261,0.139-0.198,0.258-0.034c0.107,0.164,0.189,0.438,0.261,0.54
						c-0.126-1.12-0.33-2.141-0.734-3.043c-0.402-0.897-0.985-1.635-1.728-2.047c0.065-0.06,0.252,0.008,0.418,0.093
						c-0.238-0.24-0.447-0.634-0.699-0.315l0.301,0.133c-0.031,0.384-0.483,0.378-0.922,0.343c-0.442-0.039-0.898-0.076-1.009,0.029
						c1.11-0.653-0.957-1.05,0.509-1.827c-0.21-0.06-0.524-0.015-0.632,0.238c-0.195-0.214-0.196-0.403,0.221-0.512
						c-1.034-0.358-0.911,0.218-1.721-0.205c0.088-0.178,0.288-0.167,0.48-0.333c-0.603,0.135-1.161,0.296-1.794-0.128
						c0.085-0.096,0.06-0.271,0.27-0.189c-1.265-0.418-2.366,0.267-3.596-0.387c0.577-0.754-0.397-0.38-0.335-1.117
						c0,0-0.788,0.088-0.788,0.088l0.239,0.407c-0.649-0.124-1.281,0.348-1.805,0.05l0.513-0.253c0,0-0.309,0.004-0.617,0.008
						c-0.308,0.012-0.615,0.023-0.615,0.023l0.664,0.335c-0.678,0.334-0.011,0.945-0.827,0.68c0.17-0.066-0.617-0.048-0.944-0.481
						l0.002-0.001c-0.322,0.23-0.63,0.487-1.102,0.318c-0.135-0.234,0.062-0.827-0.026-0.983c-0.284,0.633-1.549,0.286-1.847,1.033
						c0.106-0.174,0.053-0.563-0.005-0.634l-0.182,0.542c-0.328-0.103-0.394-0.165-0.406-0.482
						c-0.949,0.118,0.496,0.839-0.669,0.717c0.072-0.062,0.011-0.125,0.168-0.247c-0.773,0.054-1.428,0.5-2.037,0.948l0.065-0.036
						c-0.34,0.22-0.629,0.417-0.946,0.562c-0.735-0.404,0.68-0.717,0.021-1.021c-0.706,0.555-1.122,1.247-1.525,1.924
						c-0.196,0.334-0.391,0.666-0.583,0.991c-0.203,0.317-0.471,0.723-0.738,1.046l0.254-0.225c0.401,0.348,0.136,0.487-0.239,0.752
						c-0.38,0.244-0.866,0.668-0.727,1.081c-0.02-0.191-0.524-0.306-0.419-0.237c-0.282,0.576-0.326,1.21-0.135,1.841
						c0.203,0.624,0.696,1.282,1.486,1.637l-0.381,0.049c0.292,0.617,1.434,0.987,2.152,1.254c0.352-0.209,0.742-0.102,0.625-0.521
						c0.201,0.235,0.455,0.4,0.728,0.51c0.297,0.121,0.531,0.174,0.746,0.19c0.452,0.04,0.892-0.068,1.314-0.193
						c0.857-0.252,1.603-0.565,2.499-0.012c-0.208,0.028-0.449,0.282-0.295,0.271c0,0,0.087-0.024,0.217-0.061
						c0.122-0.04,0.399-0.089,0.604-0.188c0.227-0.086,0.43-0.185,0.559-0.263c0.133-0.076,0.223-0.126,0.223-0.126
						c-0.289-0.385-0.297-0.181-0.715-0.42c0.109-0.324,0.381-0.648,0.677-0.795c-0.43,0.535,0.303,0.681,0.69,0.779
						c-0.106-0.105-0.092-0.289-0.178-0.405c1.032,0.374-0.322-0.861,0.774-0.865l0.08,0.233c0.252-0.293,0.35-0.742,0.708-0.896
						c0.433,0.354-0.176,0.421,0.039,0.8c0.459-0.335,0.316-1.437,1.02-1.297c-0.098,0.257-0.361,0.458-0.472,0.709
						c0.81,0.203,0.766,0.022,1.156-0.136l-0.041,0.013l0.922-0.354l-0.296,0.015c-0.328-1.512,0.94-1.087,1.018-2.387
						c-0.084,1.236,0.226,0.473,0.581,0.968c0.288-0.036,0.686-0.147,0.726,0.049c-0.004-0.655,0.816-0.241,0.77-1.194
						c0.157,0.118,0.348-0.33,0.628,0.083c0.301-0.529-0.341-0.135-0.48-0.344c0.124-1.076,2.072-1.013,2.152-2.665
						c0.357-1.145-0.09-1.688,0.07-2.695c0.21-0.083,0.345,0.047,0.421,0.214c0.079,0.168,0.089,0.356,0.089,0.356
						c0.261-0.188,0.421-0.417,0.526-0.654c0.093-0.267,0.129-0.562,0.097-0.867c0.143,0.146,0.311,0.055,0.568-0.125
						c0.056-0.551-0.618-0.359-0.296-1.016c0.209,0.082,0.552,0.202,0.756,0.484c-0.127-0.695-0.541-1.252-0.921-1.739
						c0.251-0.304,0.602,0.156,0.873,0.346c-0.079-0.183-0.194-0.384-0.305-0.583c-0.124-0.194-0.301-0.366-0.455-0.518
						c-0.361-0.27-0.725-0.418-1.011-0.287c0.02-0.014,0.146,0.417,0.146,0.417C61.88,8.288,62.33,8.059,62.542,8.15
						c0.392,0.102,0.445,0.365,0.416,0.545c-0.037,0.19-0.182,0.336-0.271,0.394c0.009-0.008-0.308-0.305-0.308-0.305
						c-0.378,0.462-0.201,0.717,0.035,1.092c0.229,0.355,0.535,0.87,0.391,1.292c-0.001-0.021-0.751-0.362-0.771-0.342
						c0,0,0.144,0.166,0.271,0.373c0.136,0.205,0.239,0.443,0.239,0.443c-0.272,0.133-0.745,0.077-0.762-0.248
						c-0.558,0.316,0.16,0.486-0.45,0.702c-0.083,0.011-0.112-0.023-0.125-0.073c0,0,0.036,0.521,0.022,0.524
						c-0.115-0.161-0.547-0.208-0.325-0.396c-0.776,0.467-0.146,1.488-0.854,1.409l-0.001-0.087
						c-0.469,1.125,0.453,0.448,0.453,1.619c0,0-0.392-0.111-0.784-0.223c-0.387-0.122-0.774-0.244-0.774-0.244l0.392,0.482
						c-0.099,0.081-0.293,0.238-0.448,0.043c0.014,0.628,0.252,0.113,0.373,0.58c-0.811,0.081-0.969,1.414-1.757,0.821
						c0.171,0.483,0.664-0.157,0.431,0.532c-0.864-0.622-0.412,0.656-1.157,0.68c-0.238-0.515,0.334-0.65-0.394-0.638
						c0.372,0.902-0.922,0.559-1.154,0.976c0.449,0.574-0.575,0.876-1.055,1.52c-0.102-0.216-1.416,0.53-2.139,0.635l-0.044-0.114
						c0.263,0.7-0.438,0.95-0.836,1.281c-0.157-0.413-0.144-0.61-0.003-0.892l-0.391,0.183c0.009,0.24-0.086,0.431-0.286,0.566
						c0,0-0.016-0.137-0.031-0.274c-0.021-0.136-0.042-0.271-0.042-0.271c-0.085,0.019-0.159,0.108-0.246,0.166
						c-0.097,0.069-0.3,0.156-0.458,0.227c-0.342,0.141-0.725,0.229-1.156,0.062c-0.042,0.514,0.771,1.399-0.172,1.774
						c-0.043-0.275-0.088-0.748,0.151-0.869c-0.078,0.038-0.28,0.242-0.443,0.124l0.357-0.475c-0.4-0.192-0.197,0.396-0.518,0.357
						c0.002-0.396-0.236-0.28-0.192-0.594c0.079-0.039,0.274,0.162,0.39,0.004c-0.355-0.063-0.774-0.301-0.899-0.605
						c0.025,0.225-0.012,0.532-0.268,0.577c-0.645-0.006-0.22-0.487-0.533-0.708c-0.122,0.264-0.31-0.037-0.471,0.538
						c-0.135-0.022-0.066-0.292-0.048-0.453c-0.292,0.245-0.945-0.151-1.174,0.466l0.034,0.057c-0.02,0.007-0.035,0.003-0.061,0.01
						c0.003,0,0,0,0.003,0l-0.003,0c-0.645,0.115-1.13-0.238-1.169-0.759c-0.059-0.529,0.237-1.001,0.226-1.385l0.229-0.001
						c-0.09-0.474,0.328-0.958,0.206-1.502c0.109-0.142,0.541-0.102,0.678,0.101c0.189-0.463,0.071-0.672,0.796-0.957
						c-0.09,0.593,0.333,0.095-0.163,0.535c0.562-0.336,0.853-0.188,0.989-1.02c0.166,0.518,0.734,0.223,0.821-0.006
						c0,0-0.492-0.105-0.502-0.087c0.166-0.204,0.354-0.294,0.502-0.339l0.099-0.055l0.119-0.039c0.067,0.2,0.139,0.396,0.216,0.589
						l-0.177,0.02l0.046,0.103l0.007,0.003l0.15-0.083c0.522,0.146,0.779-0.315,1.193-0.708c0.39-0.389,0.88-0.683,1.425-0.062
						c0.272-0.508-0.711-0.241-0.498-0.815c0.619-0.003,1.296,0.917,1.462,0.908c0.784,0.348,0.726-0.998,1.598-0.717
						c-0.098-0.239-0.194-0.882,0.505-1.068c0.64,0.138,0.678,1.05,0.282,1.211c-0.146,0.009-0.21-0.071-0.198-0.151
						c-0.204,0.069-0.463,0.155-0.241,0.428l0.092-0.231c0.283,0.257,1.098,0.319,0.862,0.688c0.469-0.176,0.24-0.365-0.083-0.525
						c0.721,0.423,1.195,0.165,1.927,0.543c-0.094-0.154-0.156-0.452-0.032-0.423c1.082,0.532,0.6-0.328,1.419-0.239
						c0.344,0.476-0.385,0.789,0.463,0.717c0.383,0.384-0.094,0.626-0.324,0.765c0.806-0.232,1.122,0.692,1.411,0.913l-0.387,0.048
						c0.233-0.034,0.382,0.04,0.539,0.104l0.005-0.512c0.158,0.157,0.317,0.224,0.229,0.404c0.321-0.189,0.174-0.792,0.751-0.986
						c0.154,0.331,0.906,0.182,0.673,0.775c-0.65-0.605-0.233,0.592-0.895,0.345c0.15-0.002,0.294,0.079,0.424,0.244
						c-0.009,0.074-0.089,0.1-0.153,0.106c0.341,0.865,0.675-0.445,1.333,0.033c-0.286,0.227-0.28,0.643-0.148,0.652
						c-0.211-0.181,0.25-0.557,0.664-0.575c0.173,0.534,0.532,0.221,0.681,0.442l-0.099-0.309c0.313-0.164,0.49,0.053,0.781,0.287
						c-0.208,0.184-0.341-0.147-0.364,0.028c0.361-0.036,0.38,0.258,0.316,0.542c-0.053,0.292-0.164,0.541,0.091,0.69
						c-0.174,0.257-0.633,0.208-0.752,0.382c0.231,0.128,0.135,0.262,0.025,0.353c-0.136,0.1-0.307,0.143-0.104,0.326
						c0.443-0.007,0.409-0.112,0.76,0.32c0,0-0.004-0.054-0.011-0.135c-0.007-0.08-0.065-0.181-0.094-0.275
						c-0.038-0.095-0.059-0.182-0.09-0.247c-0.045-0.064-0.075-0.107-0.075-0.107c-0.008-0.001,0.217,0.097,0.357,0.228
						c0.159,0.128,0.324,0.298,0.324,0.298c0.01-0.138-0.051-0.286-0.101-0.408c-0.083-0.125-0.16-0.224-0.128-0.306
						c0.423,0.219,0.309,0.236,0.679,0.045c-0.302,0.248-0.243,0.409-0.122,0.645c0.146,0.226,0.2,0.519-0.094,0.694l-1.12-0.38
						c-0.136,0.079-0.243,0.178-0.271,0.307c-0.029,0.127-0.002,0.289-0.035,0.47c-0.006,0.361-0.112,0.81-0.565,1.079
						c0.011,0.006,0.367-0.101,0.367-0.101c0.272,0.432-0.409,0.513-0.539,0.891c-0.232-0.316-0.488-0.28-0.765-0.383
						c0.196,0.217-0.615,0.461-0.262,1.154l-0.71-0.142c-0.872,0.3-0.32,1.523-1.221,1.858c0.044-0.514-0.446-0.565-0.063-1.124
						c-0.264,0.14-0.532,0.204-0.414,0.447c-0.269-0.149-0.524,0.86-0.95,0.629c-0.046,0.211,0.083,0.605-0.253,0.72
						c-0.067-0.057-0.076-0.179-0.076-0.179c0.08,0.183-0.409,0.455,0.048,0.742c-0.692-0.38-1.3-0.113-1.911,0.136
						c-0.49,0.241-1.155,0.378-1.658-0.054c-0.65,0.248-1.455,0.486-2.068,0.575c0.026-0.123-0.018-0.196,0.102-0.167
						c-0.872-0.287-0.425,1.192-1.44,0.836c-0.519-0.613,0.497-0.372,0.178-0.597c-0.101-0.646-0.373-0.584-0.704-0.471
						c-0.169,0.062-0.348,0.129-0.523,0.134c-0.159,0.008-0.241-0.046-0.287-0.243l0.083-0.071
						c-0.076-0.227-0.188-0.113-0.419,0.018c-0.215,0.13-0.573,0.268-0.739,0.094c0,0,0.104-0.082,0.151-0.16
						c-0.386,0.22-0.726,0.142-1.079-0.015c-0.144-0.1-0.282-0.228-0.415-0.367c-0.094-0.149-0.164-0.314-0.24-0.471
						c0.592,0.106,0.333,0.204,0.892-0.011c-0.055-0.094-0.284-0.042-0.525-0.015c-0.241,0.026-0.521,0.021-0.546-0.295
						c0.309-0.236,0.714-0.577,1.297-0.481c-0.008,0-0.094,0.353-0.071,0.356c0.396-0.092,0.419-0.155,0.373-0.267
						c-0.054-0.107-0.159-0.261-0.045-0.317l0.29,0.129c0.055-0.205-0.07-0.397-0.13-0.64c-0.034-0.305,0.025-0.611,0.4-0.95
						l-0.236-0.097c-0.099-0.975,0.646,0.013,0.71-0.804l0.622,0.523c0.165-0.364,0.631-1.398,1.205-1.861
						c-0.075,0.703-0.59,1.368-0.755,1.929c0.279-0.211,0.978-0.718,0.96-1.145c-0.095,0.14-0.159,0.393-0.341,0.372
						c0.055-0.765,0.477-1.351,1.19-1.662c0.25,0.735,0.734,0.605,1.221,0.512c0.274-0.07,0.433-0.074,0.64-0.033
						c0.245,0.071,0.44,0.197,0.572,0.496c0.563-0.309,1.19-0.2,1.789,0.005c0.607,0.206,1.199,0.522,1.883,0.694
						c-0.137-1.287,0.411,0.09,0.72-1.083c0.367,0.048,0.493,0.111,0.493,0.199c0,0,0.18,0.271,0.36,0.543
						c0.161,0.276,0.322,0.552,0.322,0.552c0.063,0.422-0.406,0.108-0.49,0.372c0.602,0.385,0.047,0.594,0.287,1.084
						c0.124-0.431,0.515-0.442,0.754-0.097c0,0-0.044-0.191-0.089-0.381c-0.045-0.196-0.107-0.384-0.107-0.384
						c1.21-0.042,0.188,1.283,1.27,1.304l-0.461,0.128c0.256,0.043,0.562,0.31,0.895,0.518c0.328,0.212,0.682,0.364,1.2,0.275
						c-0.079,0.141-0.327,0.38-0.48,0.293c0.169,0.401,0.54,0.635,0.782,0.996c0.248,0.34,0.287,0.842-0.12,1.036l-0.25-0.167
						c0.006,0.149,0.417,0.484,0.022,0.531c-0.1-0.072-0.225-0.205-0.28-0.15c0.021,0.062,0.082,0.223,0.089,0.394
						c-0.011,0.168-0.067,0.343-0.211,0.391l-0.137-0.377c-0.428,0.25-0.57,0.658-0.7,1.151c-0.148,0.509-0.346,1.123-0.725,1.579
						c-0.568-0.662-1.589-0.213-2.088,0.004l-0.062-0.109c-1.275,0.819-1.601,2.101-2.684,2.95c-0.285-0.144-0.577-0.14-0.888-0.136
						c-0.312-0.013-0.634,0.036-0.964,0.109c-0.329,0.079-0.687,0.042-1.02,0.059c-0.17-0.006-0.327,0.008-0.495-0.037
						c-0.17-0.053-0.333-0.116-0.483-0.194c0.183,0.175-0.049,0.685-0.292,0.755c-0.283-0.197-0.918,0.557-0.818-0.25l0.147,0.029
						c-0.285-0.826-1.051-0.676-1.347-0.76l-0.266,1.026c-0.087-0.215-0.155-0.376-0.181-0.482c0.002-0.046-0.005-0.111,0-0.095
						c-0.067,0.142-0.183,0.292-0.203,0.326c-0.14,0.163-0.069,0.054,0.066-0.004c0.058-0.036,0.129-0.074,0.194-0.1
						c0.061-0.03,0.162-0.05,0.122-0.045c-0.013-0.01-0.045-0.021-0.067-0.03l-0.072-0.025c-0.025-0.094-0.047-0.213-0.066-0.315
						l-0.014-0.079l-0.003-0.02l-0.001-0.01l0-0.005l0-0.002c0,0.09,0-0.204-0.001,0.202h0v-0.011l0.001-0.041
						c0.001-0.027,0.003-0.053,0.008-0.078c0.035-0.093,0.203-0.051,0.436,0.098c-0.151-0.095-0.148-0.216-0.133-0.506l0.298,0.48
						c0.375-0.033,0.661-0.093,1.551-0.335l-0.139,0.421c0.477-0.015,0.543-1.693,1.15-1.734l0.166,0.849
						c1.08,0.01,2.016,0.88,3.031,0.412c-0.055,0.113-0.146,0.333-0.291,0.326c0.368,0.092,1.206,1.145,1.635,0.074
						c-0.353,0.642,0.848,0.589,1.527,0.699l-0.407,0.386c0.79-0.258,0.969-0.411,1.602-0.067c0.07,0.167-0.21,0.416-0.265,0.167
						c0.182,0.567,0.675-0.064,0.896,0.623l-0.429,0.048c0.305,0.426,0.395,0.273,0.927,0.281c0.19,0.079,0.277,0.33,0.276,0.571
						c-0.025,0.258-0.188,0.461-0.42,0.546c0.312-0.089,0.773,0.053,0.673,0.331c-0.187,0.042-0.322-0.032-0.387-0.06
						c-0.146,0.291,0.003,0.476,0.082,0.723c0.113,0.241,0.073,0.496-0.257,0.536c-0.164-0.099-0.257-0.135-0.322-0.147
						c0.254-0.314,0.32-0.652,0.361-0.611c-0.26-0.046-0.429-0.009-0.61-0.027c-0.183-0.01-0.373-0.096-0.718-0.212
						c0.167,0.059,0.414,0.201,0.553,0.396c0.162,0.2,0.178,0.42,0.089,0.518c-0.021,0.026-0.059,0.033-0.099,0.032
						c-0.042-0.032-0.082-0.062-0.139-0.122l-0.019-0.061c-0.072-0.011-0.077,0.048-0.072,0.143
						c-0.112-0.04-0.177-0.085-0.238-0.071c-0.108-0.188-0.115-0.245-0.246-0.216c-0.153,0.033-0.337,0.12-0.472,0.132
						c0.134,0.547-0.258,0.53,0.177,0.919c-0.056-0.032,0.046-0.073,0.225-0.138c0.038-0.026,0.085-0.045,0.105-0.083l-0.008,0.053
						c0.082-0.028,0.176-0.06,0.28-0.095c0.072-0.023,0.134-0.054,0.208-0.083c0.007,0.3-0.102,0.591-0.515,0.363
						c-0.062,0.389-0.173,0.782-0.244,0.975c-0.579-0.685-1.41-1.032-1.55-1.513c-0.905,0.391-2.082,0.233-2.791,1.166
						c-0.288,0.092-0.234-0.353-0.284-0.529c0.156-0.077,0.309-0.027,0.412-0.168c-0.259,0.097-0.612,0.05-0.863,0.043
						c-0.258-0.008-0.416,0.059-0.659,0.33c-0.034-0.12,0.069-0.17,0.112-0.223c0.054-0.047,0.06-0.051,0.113-0.106
						c0.037-0.042,0.062-0.074,0.016-0.018c-0.041,0.048-0.249,0.242-0.378,0.285c-0.034,0.013,0.088-0.037,0.089-0.043
						c-0.193,0.107-0.11-0.015,0.294,0.106c0.046,0.02,0.221,0.093,0.308,0.163c0.112,0.063,0.17,0.186,0.285,0.237l0.078-0.15
						l0.034-0.077l0.016-0.039l0.004-0.01l0.002-0.005l0-0.001c0.101,0.039-0.879-0.343-0.463-0.181l0.002,0.001l0.017,0.011
						c0.109,0.075,0.104,0.101,0.241,0.234c0.018,0.019-0.043-0.06-0.022-0.104c-0.009-0.11,0.048-0.26,0.144-0.401
						c0.378-0.591,1.353-1.062,2.294-0.217c-0.131-0.104-0.198-0.153-0.22-0.276c1.132,0.405,2.334,0.498,3.513,0.807
						c0.277,0.073,0.608,0.182,0.821,0.268c0.206,0.083,0.408,0.185,0.581,0.315c0.348,0.251,0.592,0.623,0.473,1.013
						c-0.086,0.394,0.499,0.321,0.906,0.644c0,0-0.19,0.023-0.381,0.047c-0.189,0.016-0.379,0.033-0.379,0.033
						s0.189,0.106,0.355,0.253c0.178,0.147,0.298,0.317,0.298,0.317c0.096,0.456-0.615,0.597-1.096,0.597
						c-0.254,0.004-0.475-0.016-0.621,0.035c-0.168,0.05-0.192,0.148-0.379,0.513l0.332,0.286c-0.405,0.153-1.189,0.825-1.295,0.354
						c-0.014,0.083,0.014,0.446-0.225,0.312l-0.121-0.292c0,0-0.207,0.216-0.431,0.428c-0.22,0.219-0.461,0.411-0.461,0.411
						c-0.451,0.003-0.481-0.331-0.559-0.607c-0.072-0.292-0.204-0.518-0.724-0.475c-0.352,0.194-0.982,0.966-0.896,1.177
						c0.155,0.017,0.413,0.211,0.451,0.517c0.001,0.012-0.434,0.162-0.434,0.162c-0.068,0.466-0.229,0.928-0.219,1.365
						c-0.001,0.219,0.064,0.43,0.231,0.631c0.172,0.203,0.459,0.391,0.839,0.52c0,0,0.265-0.155,0.477-0.335
						c0.215-0.174,0.43-0.349,0.43-0.349l0.377,0.386c0,0-0.189,0.051-0.393,0.087c-0.204,0.036-0.408,0.072-0.408,0.072
						c0.534,0.36,0.772-0.074,1.019-0.39c0.125,0.22,0.294,0.357,0.497,0.396c0,0,0.165-0.273,0.329-0.547
						c0.159-0.271,0.295-0.555,0.295-0.555c0.217,0.313-0.175,0.816,0.475,0.819c0.268-0.522-0.631-0.654-0.075-1.121
						c0.535,0.248,0.557,0.613,0.894,0.092c0.158,0.191,0.118,0.38-0.038,0.55c0.324-0.432,1.094-0.615,1.074-1.175
						c0.168,0.055,0.315,0.054,0.517-0.043c0.205-0.103,0.409-0.243,0.601-0.36c0.392-0.224,0.676-0.448,0.988-0.118
						c-0.001-0.147,0.121-0.435,0.214-0.759c0.087-0.332,0.233-0.638,0.367-0.862c0.172,0.647,0.52,0.255,0.881-0.295
						c0.172-0.271,0.296-0.588,0.483-0.795c0.172-0.211,0.325-0.349,0.6-0.231c-0.401-0.48-0.295-1.164-0.486-1.922
						c-0.157-0.752-0.591-1.512-1.251-1.89c0.11,0.02,0.355,0.06,0.374,0.182c-0.391-0.63-0.317-0.951-0.59-1.432
						c-0.694,0.396-1.816-0.155-2.584,0.029c-0.197-0.517-0.008-0.681,0.32-0.771c0.319-0.102,0.751-0.115,0.802-0.502
						c-0.148,0.271-0.659,0.201-1.08,0.153c-0.357,0.003-0.616,0.038-0.615,0.326c-0.318-0.63-0.336-0.376-0.378-1.084
						c-0.411,0.897-0.533-0.01-1.125,0.446c-0.597-0.659,0.048-0.951-0.844-0.854C58.747,36.261,59.579,36.094,59.579,36.094z
						 M62.513,42.173l0.008,0.009c-0.154,0.149-0.289,0.277-0.385,0.344C62.222,42.464,62.334,42.361,62.513,42.173z M63.703,40.47
						c-0.125,0.22-0.282,0.495-0.448,0.786c-0.197-0.045-0.324-0.223-0.223-0.384C63.09,41.033,63.412,40.689,63.703,40.47z
						 M59.433,39.43c0.081-0.105,0.102,0.004,0.161,0.105c-0.042,0.024-0.025,0.037-0.149,0.112c0,0.019-0.001,0.049-0.001,0.071
						C59.432,39.611,59.422,39.509,59.433,39.43z"/>
					<path fill="#2080D2" d="M59.302,40.22c-0.024,0.019-0.034,0.044-0.067,0.058c0.048,0.04,0.093,0.072,0.138,0.098
						c0.009-0.064,0.018-0.128,0.026-0.186C59.366,40.2,59.332,40.21,59.302,40.22z"/>
					<path fill="#2080D2" d="M44.723,21.325l-0.012-0.018c0,0.026,0.001,0.05-0.015,0.084
						C44.702,21.363,44.716,21.347,44.723,21.325z"/>
					<polygon fill="#2080D2" points="45.28,32.603 45.407,32.664 45.412,32.376 					"/>
					<path fill="#2080D2" d="M52.391,22.778c0.036,0.037,0.088,0.067,0.166,0.076C52.536,22.823,52.469,22.8,52.391,22.778z"/>
					<path fill="#2080D2" d="M55.518,20.921l0.523-0.149C55.797,20.816,55.641,20.873,55.518,20.921z"/>
					<path fill="#2080D2" d="M57.822,19.391c-0.04-0.097-0.082-0.159-0.12-0.215l-0.007,0L57.822,19.391z"/>
					<path fill="#2080D2" d="M65.447,16.192c0.035,0.034,0.071,0.063,0.11,0.085C65.852,16.447,65.674,16.309,65.447,16.192z"/>
					<path fill="#2080D2" d="M52.341,12.776c0.138-0.1,0.279-0.204,0.426-0.257C52.534,12.464,52.35,12.458,52.341,12.776z"/>
					<polygon fill="#2080D2" points="59.497,30.527 59.496,30.519 59.408,30.558 					"/>
					<path fill="#2080D2" d="M53.379,12.554c-0.229-0.123-0.428-0.108-0.612-0.035C52.958,12.563,53.18,12.63,53.379,12.554z"/>
					<path fill="#2080D2" d="M63.164,7.828L63.06,7.67C63.032,7.694,63,7.703,62.971,7.707L63.164,7.828z"/>
					<path fill="#2080D2" d="M62.971,7.707l-0.188-0.114C62.846,7.663,62.903,7.721,62.971,7.707z"/>
					<path fill="#2080D2" d="M62.362,7.402c0,0,0.109,0.042,0.218,0.083c0.112,0.041,0.2,0.11,0.203,0.107
						C62.696,7.471,62.549,7.352,62.362,7.402z"/>
					<path fill="#2080D2" d="M63.172,12.704l0.168,0.124C63.312,12.786,63.26,12.745,63.172,12.704z"/>
					<path fill="#2080D2" d="M62.654,13.858c0.179-0.218,0.746-0.435,0.818-0.929l-0.132-0.102c0.096,0.155-0.122,0.338-0.335,0.516
						C62.787,13.499,62.572,13.652,62.654,13.858z"/>
					<path fill="#2080D2" d="M57.891,15.9l0.704-0.52c-0.266-0.034-0.611-0.088-0.39-0.406C57.006,15.322,58.717,15.14,57.891,15.9z
						"/>
					<path fill="#2080D2" d="M55.748,17.509c0.28-0.376-0.212-0.233-0.275-0.342C55.387,17.504,55.363,17.591,55.748,17.509z"/>
					<path fill="#2080D2" d="M45.131,17.831L45.5,18.19C45.646,17.902,45.349,18.059,45.131,17.831z"/>
					<path fill="#2080D2" d="M46.422,13.363c0,0-0.138-0.015-0.276-0.031c-0.143-0.012-0.285-0.023-0.285-0.023
						c0.002,0.026,0.004,0.052-0.005,0.057c0.043-0.015,0.086-0.029,0.126-0.051c-0.002,0.154,0.001,0.307,0.009,0.457
						c0.051-0.044,0.102-0.088,0.159-0.12c-0.033,0.013-0.065,0.025-0.095,0.042L46.422,13.363z"/>
					<path fill="#2080D2" d="M49.613,16.122l-0.109,0.097c0,0,0.111-0.07,0.221-0.14c0.118-0.065,0.236-0.13,0.236-0.13
						S49.607,16.116,49.613,16.122z"/>
					<path fill="#2080D2" d="M54.261,27.208l0.226,0.598C54.693,27.648,54.595,26.948,54.261,27.208z"/>
					<path fill="#2080D2" d="M48.352,24.884c0.303,0.125,0.7,0.07,0.662-0.307C48.778,24.722,48.387,24.72,48.352,24.884z"/>
					<path fill="#2080D2" d="M49.479,34.792c-0.011-0.001,0.098-0.187,0.106-0.187c0.008,0-0.06,0.033-0.058,0.073
						c-0.008,0.034-0.13,0.271-0.154,0.319c-0.031,0.064-0.051,0.106-0.051,0.106s0.043-0.088,0.086-0.176
						C49.503,34.742,49.479,34.792,49.479,34.792z"/>
				</g>
			</g>
		</g>
	</g>
</g>
<g>
	<g>
		<path fill="#006DCC" d="M117.978,86.171c0,25.261,0,50.521,0,75.782c0,12.897,20,12.897,20,0c0-25.261,0-50.521,0-75.782
			C137.978,73.273,117.978,73.273,117.978,86.171L117.978,86.171z"/>
	</g>
</g>
<g>
	<g>
		<path fill="#006DCC" d="M40.681,55.101c0,35.618,0,71.235,0,106.852c0,12.897,20,12.897,20,0c0-35.617,0-71.234,0-106.852
			C60.681,42.204,40.681,42.204,40.681,55.101L40.681,55.101z"/>
	</g>
</g>
<g>
	<g>
		<g>
			<path fill="#006DCC" d="M134.638,154.881c-25.323-25.285-50.646-50.571-75.97-75.857c-9.134-9.12-23.277,5.021-14.143,14.143
				c25.323,25.285,50.646,50.571,75.97,75.857C129.629,178.144,143.772,164.002,134.638,154.881L134.638,154.881z"/>
		</g>
	</g>
	<g>
		<g>
			<path fill="#006DCC" d="M20.834,130.432c25.286-25.323,50.571-50.646,75.857-75.969c9.12-9.134-5.021-23.277-14.143-14.143
				C57.263,65.644,31.978,90.967,6.692,116.289C-2.428,125.423,11.713,139.565,20.834,130.432L20.834,130.432z"/>
		</g>
	</g>
</g>
<g>
	<g>
		<g>
			<path fill="#006DCC" d="M172.529,116.231c-25.323-25.285-50.646-50.571-75.97-75.856c-9.134-9.12-23.277,5.021-14.143,14.143
				c25.323,25.285,50.646,50.57,75.97,75.856C167.52,139.494,181.663,125.353,172.529,116.231L172.529,116.231z"/>
		</g>
	</g>
	<g>
		<g>
			<path fill="#006DCC" d="M57.968,168.323c25.285-25.324,50.57-50.647,75.856-75.971c9.12-9.134-5.021-23.277-14.143-14.143
				c-25.285,25.324-50.57,50.647-75.856,75.971C34.705,163.314,48.847,177.458,57.968,168.323L57.968,168.323z"/>
		</g>
	</g>
</g>
<g>
	<g>
		<path fill="#006DCC" d="M55.838,55.101c0,5.305,0,10.61,0,15.915c0,5.451,4.549,10,10,10s10-4.549,10-10c0-5.305,0-10.61,0-15.915
			c0-5.451-4.549-10-10-10S55.838,49.65,55.838,55.101L55.838,55.101z"/>
	</g>
</g>
<g>
	<g>
		<path fill="#006DCC" d="M50.302,65.48c5.052,0,10.104,0,15.156,0c5.451,0,10-4.549,10-10s-4.549-10-10-10
			c-5.052,0-10.104,0-15.156,0c-5.451,0-10,4.549-10,10S44.851,65.48,50.302,65.48L50.302,65.48z"/>
	</g>
</g>
<g>
	<g>
		<path fill="#006DCC" d="M68.024,95.675c15.979-0.029,31.958-0.058,47.936-0.087c12.896-0.023,12.898-20.023,0-20
			c-15.979,0.029-31.958,0.058-47.936,0.087C55.128,75.698,55.126,95.698,68.024,95.675L68.024,95.675z"/>
	</g>
</g>
</svg>
