<?xml version="1.0" encoding="utf-8"?>
<!-- Generator: Adobe Illustrator 16.0.0, SVG Export Plug-In . SVG Version: 6.00 Build 0)  -->
<!DOCTYPE svg PUBLIC "-//W3C//DTD SVG 1.1//EN" "http://www.w3.org/Graphics/SVG/1.1/DTD/svg11.dtd">
<svg version="1.1" id="Layer_1" xmlns="http://www.w3.org/2000/svg" xmlns:xlink="http://www.w3.org/1999/xlink" x="0px" y="0px"
	 viewBox="0 0 178.992 143.277" enable-background="new 0 0 178.992 143.277"
	 xml:space="preserve">
<g>
	<g>
		<g>
			<path fill="#00538C" d="M17.334,96.902c26.28-26.319,52.56-52.639,78.84-78.958c9.12-9.134-5.021-23.277-14.143-14.143
				C55.751,30.122,29.472,56.44,3.191,82.76C-5.929,91.894,8.213,106.036,17.334,96.902L17.334,96.902z"/>
		</g>
	</g>
	<g>
		<g>
			<path fill="#00538C" d="M174.995,82.701c-26.319-26.28-52.639-52.561-78.958-78.842c-9.134-9.12-23.277,5.021-14.143,14.143
				c26.319,26.28,52.639,52.561,78.958,78.842C169.986,105.964,184.128,91.822,174.995,82.701L174.995,82.701z"/>
		</g>
	</g>
	<g>
		<g>
			<path fill="#00538C" d="M55.928,136.282c13.365-13.405,26.73-26.81,40.096-40.214c9.113-9.141-5.028-23.283-14.143-14.143
				c-13.365,13.405-26.73,26.81-40.096,40.214C32.672,131.28,46.813,145.424,55.928,136.282L55.928,136.282z"/>
		</g>
	</g>
	<g>
		<g>
			<path fill="#00538C" d="M52.44,58.97c24.72,0.005,49.44,0.009,74.16,0.014c12.897,0.002,12.897-19.998,0-20
				c-24.72-0.005-49.44-0.009-74.16-0.014C39.543,38.968,39.543,58.968,52.44,58.97L52.44,58.97z"/>
		</g>
	</g>
	<g>
		<g>
			<path fill="#00538C" d="M135.613,122.867c-13.902-13.862-27.804-27.726-41.706-41.589c-9.14-9.113-23.283,5.027-14.143,14.143
				c13.902,13.862,27.804,27.726,41.706,41.589C130.61,146.123,144.753,131.982,135.613,122.867L135.613,122.867z"/>
		</g>
	</g>
	<g>
		<g>
			<path fill="#00538C" d="M118.971,51.18c0,26.531,0,53.063,0,79.595c0,12.897,20,12.897,20,0c0-26.531,0-53.063,0-79.595
				C138.971,38.282,118.971,38.282,118.971,51.18L118.971,51.18z"/>
		</g>
	</g>
	<g>
		<g>
			<path fill="#00538C" d="M38.633,51.403c0,26.179,0,52.356,0,78.535c0,12.897,20,12.897,20,0c0-26.179,0-52.356,0-78.535
				C58.633,38.506,38.633,38.506,38.633,51.403L38.633,51.403z"/>
		</g>
	</g>
	<g>
		<g>
			<path fill="#00538C" d="M95.406,82.66C82.415,69.709,69.423,56.757,56.433,43.805c-9.141-9.113-23.284,5.028-14.143,14.143
				c12.991,12.951,25.982,25.903,38.973,38.855C90.404,105.915,104.547,91.774,95.406,82.66L95.406,82.66z"/>
		</g>
	</g>
	<g>
		<g>
			<path fill="#00538C" d="M95.404,96.806c13.229-13.27,26.459-26.538,39.688-39.807c9.113-9.141-5.028-23.284-14.143-14.143
				c-13.229,13.27-26.459,26.538-39.688,39.807C72.148,91.804,86.289,105.947,95.404,96.806L95.404,96.806z"/>
		</g>
	</g>
</g>
</svg>
