<?xml version="1.0" encoding="utf-8"?>
<!-- Generator: Adobe Illustrator 16.0.0, SVG Export Plug-In . SVG Version: 6.00 Build 0)  -->
<svg version="1.2" baseProfile="tiny" id="Layer_1" xmlns="http://www.w3.org/2000/svg" xmlns:xlink="http://www.w3.org/1999/xlink"
	 x="0px" y="0px" width="178.992px" height="174.336px" viewBox="0 0 178.992 174.336" xml:space="preserve">
<g>
	<path d="M117.978,86.171c0,25.261,0,50.521,0,75.782c0,12.897,20,12.897,20,0c0-25.261,0-50.521,0-75.782
		C137.978,73.273,117.978,73.273,117.978,86.171L117.978,86.171z"/>
</g>
<g>
	<path d="M40.681,85.281c0,25.558,0,51.114,0,76.672c0,12.897,20,12.897,20,0c0-25.558,0-51.114,0-76.672
		C60.681,72.384,40.681,72.384,40.681,85.281L40.681,85.281z"/>
</g>
<g>
	<path d="M95.953,116.195c-12.428-12.391-24.856-24.781-37.284-37.172c-9.141-9.112-23.284,5.028-14.143,14.143
		c12.428,12.391,24.856,24.781,37.284,37.172C90.951,139.45,105.094,125.31,95.953,116.195L95.953,116.195z"/>
</g>
<g>
	<path d="M95.527,130.764c12.766-12.804,25.531-25.607,38.297-38.411c9.113-9.141-5.028-23.284-14.143-14.143
		c-12.766,12.804-25.531,25.607-38.297,38.411C72.271,125.762,86.412,139.905,95.527,130.764L95.527,130.764z"/>
</g>
</svg>
