<?xml version="1.0" encoding="utf-8"?>
<!-- Generator: Adobe Illustrator 16.0.0, SVG Export Plug-In . SVG Version: 6.00 Build 0)  -->
<svg version="1.2" baseProfile="tiny" id="Layer_1" xmlns="http://www.w3.org/2000/svg" xmlns:xlink="http://www.w3.org/1999/xlink"
	 x="0px" y="0px" width="178.992px" height="174.336px" viewBox="0 0 178.992 174.336" xml:space="preserve">
<g>
	<g>
		<path d="M134.638,154.881c-25.323-25.285-50.646-50.571-75.97-75.857c-9.134-9.12-23.277,5.021-14.143,14.143
			c25.323,25.285,50.646,50.571,75.97,75.857C129.629,178.144,143.772,164.002,134.638,154.881L134.638,154.881z"/>
	</g>
	<g>
		<path d="M20.834,130.432c25.286-25.323,50.571-50.646,75.857-75.969c9.12-9.134-5.021-23.277-14.143-14.143
			C57.263,65.644,31.978,90.967,6.692,116.289C-2.428,125.423,11.713,139.565,20.834,130.432L20.834,130.432z"/>
	</g>
</g>
</svg>
