<?xml version="1.0" encoding="utf-8"?>
<!-- Generator: Adobe Illustrator 16.0.0, SVG Export Plug-In . SVG Version: 6.00 Build 0)  -->
<svg version="1.2" baseProfile="tiny" id="Layer_1" xmlns="http://www.w3.org/2000/svg" xmlns:xlink="http://www.w3.org/1999/xlink"
	 x="0px" y="0px" width="178.992px" height="174.336px" viewBox="0 0 178.992 174.336" xml:space="preserve">
<g>
	<g>
		<path d="M172.529,116.231c-25.323-25.285-50.646-50.571-75.97-75.856c-9.134-9.12-23.277,5.021-14.143,14.143
			c25.323,25.285,50.646,50.57,75.97,75.856C167.52,139.494,181.663,125.353,172.529,116.231L172.529,116.231z"/>
	</g>
	<g>
		<path d="M57.968,168.323c25.285-25.324,50.57-50.647,75.856-75.971c9.12-9.134-5.021-23.277-14.143-14.143
			c-25.285,25.324-50.57,50.647-75.856,75.971C34.705,163.314,48.847,177.458,57.968,168.323L57.968,168.323z"/>
	</g>
</g>
</svg>
